<svg xmlns="http://www.w3.org/2000/svg" viewBox="0 0 165.82 165.82" class="">
  <g id="diff-line" data-name="Diff Line">
      <path d="M0,0V165.82H165.82V0ZM29.06,24.86c-6.29,2.66-12.81,9.69-20.12,21.61q-1.51,2.46-3.12,5.28V11.5ZM5.82,160V63.91c.15-.28.29-.57.44-.84,2.8-5.31,5.29-9.74,7.63-13.56C22.17,36,29,29.45,34.8,29.45a9.43,9.43,0,0,1,3.62.79L41.52,32c11.4,8.14,24.12,34.16,34.69,55.79,13.14,26.89,22.37,44.94,31.74,49.8L75.24,160ZM160,102l-27.34,18.71c4.61-7.67,9.41-17.27,14.62-27.87L160,100.15Zm-42.73,29.24-1.52,1a5.63,5.63,0,0,1-2.74.84c-8.19,0-20.61-25.42-31.57-47.85-7.81-16-15.76-32.26-24-44.07l84.74,48.73C133.71,107.26,124.51,125.45,117.27,131.24ZM160,160H85.54L160,109.05Zm0-66.56L149.84,87.6C153.07,81,156.48,74.1,160,67.41Zm-15.21-8.75L44,26.73a24.73,24.73,0,0,0-2.26-1.3L7.61,5.82H160V55.18C154.84,64.28,149.78,74.51,144.79,84.69Z"/>
  </g>

  <g id="inte-line" data-name="Inte Line">
      <path d="M0,0V165.82H165.82V0ZM64.28,160H20.39c3.71-5.93,7.33-12.36,10.88-19ZM34,135.91c2.46-4.7,5.12-9.92,8.32-16.34L112.61,160H75.88ZM160,160H124.21L44.88,114.38l4.28-8.68L53,97.93l107,61.53Zm0-7.22-104.43-60c2.42-4.86,5.32-10.61,8.31-16.35L160,131.66ZM160,125,66.58,71.27c3.24-6.08,6.24-11.41,9.07-16.14L160,103.74Zm0-27.93L78.68,50.2A143.16,143.16,0,0,1,89.22,35.38l68.06,39.14c.91,1.71,1.81,3.44,2.72,5.19ZM93.13,31c6.41-6.68,12.25-10,17.62-10C123.87,21,138.06,40,152,64.79ZM110.75,15.2c-11.89,0-24.14,11-38.57,34.5-3.7,6-7.64,13-12,21.34-4,7.63-8,15.53-11,21.56q-2.61,5.27-5.2,10.54c-1.84,3.72-3.66,7.43-5.49,11.11-4.41,8.88-7.78,15.48-10.92,21.42-4.31,8.14-9.09,16.69-14.1,24.33H5.82V5.82H160V67.35C144,38,127.65,15.2,110.75,15.2Z"/>
  </g>

  <g id="poly-line" data-name="Poly Line">
      <path d="M51.64,0H0V166.12H166.12V0ZM160.3,160.3H5.82V5.82H23.48C49.37,87,75.09,133.28,101.58,146.52a33.91,33.91,0,0,0,32-.14q13.48-6.87,26.69-25.17Zm0-49.44Q145.59,133.71,131,141.19c-9,4.59-17.78,4.64-26.79.13C79.48,129,54.59,83.65,29.6,5.82h6.58c21.63,58.4,43.24,92.55,65.4,103.63a33.88,33.88,0,0,0,32-.15q13.48-6.85,26.69-25.16Zm0-37.07Q145.59,96.64,131,104.12c-9,4.59-17.78,4.63-26.79.13C83.71,94,63.09,61.11,42.41,5.82H47.8c17.77,40.84,35.59,65.5,53.78,74.59a33.91,33.91,0,0,0,32-.14Q147.09,73.4,160.3,55.1ZM131,75.08c-9,4.59-17.78,4.63-26.79.13Q79.3,62.76,54.17,5.82H160.3V44.75Q145.59,67.6,131,75.08Z"/>
  </g>

  <g id="prob-line" data-name="Prob Line">
      <path class="cls-1" d="M0,0V165.82H165.82V0ZM7.91,160.06c4-5.13,7.87-10.75,11.9-16.87,5.53-8.4,10.59-16.18,15.06-23,26.21-40.23,37.06-56.89,48-56.89s21.83,16.66,48,56.89c4.46,6.86,9.53,14.64,15.06,23,4,6.12,7.94,11.74,11.9,16.87Zm27-53.25c25.45-43.67,37.07-63.6,48-63.6s22.51,19.93,48,63.6c4.47,7.66,9.53,16.34,15.06,25.73.1.17.2.32.29.49l-10.45-16C107.57,73.7,97,57.5,82.91,57.5S58.25,73.7,30.05,117c-3.2,4.9-6.7,10.28-10.46,16,.1-.17.2-.32.29-.49C25.42,123.15,30.48,114.47,35,106.81ZM23.14,115.6c4.3-8.27,8.28-16,11.88-22.94C60.49,43.3,72.12,20.78,82.91,20.78S105.33,43.3,130.8,92.66c3.59,7,7.58,14.67,11.87,22.94l-6.82-11.69C107.66,55.55,97.11,37.45,82.91,37.45S58.16,55.55,30,103.91C27.83,107.58,25.55,111.49,23.14,115.6ZM151,119.06c-5.53-10.59-10.59-20.4-15.05-29-28.17-54.58-38.71-75-53-75s-24.84,20.42-53,75c-4.46,8.64-9.52,18.45-15,29-3.17,6.07-6.18,11.55-9.09,16.52V5.76h154.3V135.58C157.15,130.61,154.14,125.13,151,119.06Z"/>
  </g>

  <g id="spec-line" data-name="Spec Line">
      <path d="M0,0V165.82H165.82V0ZM160,33.11c-10.92,16.56-21.51,38.15-31.93,59.4-6.2,12.66-12.49,25.49-18.58,36.5-6.33-11.43-12.89-24.85-19.36-38.09q-2-4.08-4-8.17C104,46.52,123.55,9.67,141,9.67c6.15,0,12.56,4.77,19.05,12.49ZM5.82,22.11c6.48-7.69,12.88-12.44,19-12.44,17.4,0,37,36.85,54.82,73.08q-2,4.08-4,8.17c-6.49,13.28-13.06,26.72-19.41,38.17C49.9,117.64,43.32,104.2,36.83,90.92,26.68,70.14,16.36,49,5.82,32.79ZM80.88,93.47l2-4.11c.67,1.37,1.35,2.75,2,4.11,7.43,15.21,14.46,29.59,21.24,41.45-8.55,14.63-16.57,24.83-23.24,24.83S68.18,149.62,59.6,135C66.39,123.12,73.43,108.71,80.88,93.47ZM71.06,160H41.43c4.84-4.34,9.76-11,14.81-19.3C61.29,149,66.21,155.66,71.06,160Zm38.44-19.37c5.07,8.31,10,15,14.85,19.37H94.7C99.55,155.64,104.46,148.94,109.5,140.63ZM82.89,76.17c-16-32.38-32.55-62.54-49.66-70.35h99.32C115.44,13.63,98.94,43.79,82.89,76.17ZM5.82,5.82H16.38A38.09,38.09,0,0,0,5.82,13.47Zm0,38c8.79,14.87,17.53,32.73,25.79,49.63C39.05,108.71,46.1,123.12,52.88,135c-8.57,14.62-16.61,24.75-23.29,24.75S14.56,149.13,5.82,134Zm0,101.31c4,6.23,8,11.31,12,14.85h-12ZM160,160H148c3.94-3.55,7.92-8.65,12-14.91ZM160,134c-8.76,15.15-17,25.8-23.81,25.8s-14.74-10.16-23.33-24.83c6.53-11.47,13.29-25.27,20.44-39.85,8.52-17.39,17.54-35.77,26.7-51ZM149.4,5.82H160v7.69A38.23,38.23,0,0,0,149.4,5.82Z"/>
  </g>

  <g id="stat-line" data-name="Stat Line">
      <path class="cls-1" d="M0,0V165.76H165.76V0ZM160,160H13a400.12,400.12,0,0,1,57.72-30.47c34.62-14.89,63.33-23.19,89.25-27.81Zm0-64.15c-26.55,4.65-56,13.1-91.53,28.4A403.32,403.32,0,0,0,5.76,157.84v-20L160,72.9Zm0-29.19L5.76,131.59V110.05A401.81,401.81,0,0,0,59.19,94.86C103,78.81,136,58.8,160,40.33ZM57.21,89.45A393.46,393.46,0,0,1,5.76,104.16V5.76H160V33C136.19,51.93,102.63,72.82,57.21,89.45Z"/>
  </g>
</svg>
