<svg xmlns="http://www.w3.org/2000/svg" xmlns:xlink="http://www.w3.org/1999/xlink" viewBox="0 0 100 100">
  <defs>
    <clipPath id="clip-path">
        <rect width="100" height="100"/>
      </clipPath>
  </defs>
    <g id="diff-open-icon">
      <path class="cls-3" d="M103.39,63.54,46.15,102.71m57.24-70.56c-3.8,6.66-7.53,14.29-11.13,21.65M70.48,85c6.4,0,13.8-14.91,21.78-31.18l-68-39.1C40.83,26.2,57.75,85,70.48,85Zm-72.63-48,.51-1c1.7-3.21,3.39-6.27,5.1-9,5.11-8.34,10.25-14.15,15.43-14.15a8.07,8.07,0,0,1,3.32.77L-2.15-.48m48.3,103.19,57.24-39.17V60.2L92.26,53.8C84.28,70.07,76.88,85,70.48,85,57.75,85,40.83,26.2,24.26,14.7l-2.05-1.17a8.07,8.07,0,0,0-3.32-.77c-5.18,0-10.32,5.81-15.43,14.15-1.71,2.77-3.4,5.83-5.1,9l-.51,1M24.26,14.7a12.6,12.6,0,0,0-2.05-1.17Z"/>
    </g>
</svg>
