<svg xmlns="http://www.w3.org/2000/svg" viewBox="0 0 165.82 165.82" class="">
  <g id="diff-line" data-name="Diff Line">
      <path d="M0,0V165.82H165.82V0ZM29.06,24.86c-6.29,2.66-12.81,9.69-20.12,21.61q-1.51,2.46-3.12,5.28V11.5ZM5.82,160V63.91c.15-.28.29-.57.44-.84,2.8-5.31,5.29-9.74,7.63-13.56C22.17,36,29,29.45,34.8,29.45a9.43,9.43,0,0,1,3.62.79L41.52,32c11.4,8.14,24.12,34.16,34.69,55.79,13.14,26.89,22.37,44.94,31.74,49.8L75.24,160ZM160,102l-27.34,18.71c4.61-7.67,9.41-17.27,14.62-27.87L160,100.15Zm-42.73,29.24-1.52,1a5.63,5.63,0,0,1-2.74.84c-8.19,0-20.61-25.42-31.57-47.85-7.81-16-15.76-32.26-24-44.07l84.74,48.73C133.71,107.26,124.51,125.45,117.27,131.24ZM160,160H85.54L160,109.05Zm0-66.56L149.84,87.6C153.07,81,156.48,74.1,160,67.41Zm-15.21-8.75L44,26.73a24.73,24.73,0,0,0-2.26-1.3L7.61,5.82H160V55.18C154.84,64.28,149.78,74.51,144.79,84.69Z"/>
  </g>
</svg>
