<svg xmlns="http://www.w3.org/2000/svg" viewBox="0 0 165.82 165.82" class="">
  <g id="inte-line" data-name="Inte Line">
      <path d="M0,0V165.82H165.82V0ZM64.28,160H20.39c3.71-5.93,7.33-12.36,10.88-19ZM34,135.91c2.46-4.7,5.12-9.92,8.32-16.34L112.61,160H75.88ZM160,160H124.21L44.88,114.38l4.28-8.68L53,97.93l107,61.53Zm0-7.22-104.43-60c2.42-4.86,5.32-10.61,8.31-16.35L160,131.66ZM160,125,66.58,71.27c3.24-6.08,6.24-11.41,9.07-16.14L160,103.74Zm0-27.93L78.68,50.2A143.16,143.16,0,0,1,89.22,35.38l68.06,39.14c.91,1.71,1.81,3.44,2.72,5.19ZM93.13,31c6.41-6.68,12.25-10,17.62-10C123.87,21,138.06,40,152,64.79ZM110.75,15.2c-11.89,0-24.14,11-38.57,34.5-3.7,6-7.64,13-12,21.34-4,7.63-8,15.53-11,21.56q-2.61,5.27-5.2,10.54c-1.84,3.72-3.66,7.43-5.49,11.11-4.41,8.88-7.78,15.48-10.92,21.42-4.31,8.14-9.09,16.69-14.1,24.33H5.82V5.82H160V67.35C144,38,127.65,15.2,110.75,15.2Z"/>
  </g>
</svg>
