<svg xmlns="http://www.w3.org/2000/svg" xmlns:xlink="http://www.w3.org/1999/xlink" viewBox="0 0 100 100">
  <defs>
    <clipPath id="clip-path">
      <rect width="100" height="100"/>
    </clipPath>
  </defs>
  <g class="spec-open"><path class="cls-3" d="M101.87,8V16.4c-12.21,18.37-24,47-34.62,65.46C61.74,72.34,56,60.13,50,48,62.21,23.18,75.1-1.25,87.64-1.25,92.4-1.25,97.15,2.28,101.87,8ZM32.73,81.9c6.16,10.66,12,17.94,17.27,17.94s11.1-7.3,17.25-18C61.74,72.34,56,60.13,50,48,44,60.15,38.24,72.37,32.73,81.9Zm0,0C38.24,72.37,44,60.15,50,48,37.79,23.18,24.9-1.25,12.37-1.25,7.61-1.25,2.87,2.27-1.85,8v8.18C10.16,34.53,22,63.34,32.73,81.9Zm34.52,0c6.18,10.68,12,18,17.3,18s11.14-7.36,17.32-18.1m-103.72,0c6.17,10.72,12,18.06,17.3,18.06S26.56,92.56,32.73,81.9c6.16,10.66,12,17.94,17.27,17.94s11.1-7.3,17.25-18c6.18,10.68,12,18,17.3,18s11.14-7.36,17.32-18.1h0M-1.85,8C2.87,2.27,7.61-1.25,12.37-1.25,24.9-1.25,37.79,23.18,50,48,62.21,23.18,75.1-1.25,87.64-1.25c4.76,0,9.51,3.53,14.23,9.26m0-11.75,0,103.74M-1.87,100m0-103.74"/>
  </g>
</svg>
