<svg xmlns="http://www.w3.org/2000/svg" viewBox="0 0 166.12 166.12" class="">
  <g id="poly-line" data-name="Poly Line">
      <path d="M51.64,0H0V166.12H166.12V0ZM160.3,160.3H5.82V5.82H23.48C49.37,87,75.09,133.28,101.58,146.52a33.91,33.91,0,0,0,32-.14q13.48-6.87,26.69-25.17Zm0-49.44Q145.59,133.71,131,141.19c-9,4.59-17.78,4.64-26.79.13C79.48,129,54.59,83.65,29.6,5.82h6.58c21.63,58.4,43.24,92.55,65.4,103.63a33.88,33.88,0,0,0,32-.15q13.48-6.85,26.69-25.16Zm0-37.07Q145.59,96.64,131,104.12c-9,4.59-17.78,4.63-26.79.13C83.71,94,63.09,61.11,42.41,5.82H47.8c17.77,40.84,35.59,65.5,53.78,74.59a33.91,33.91,0,0,0,32-.14Q147.09,73.4,160.3,55.1ZM131,75.08c-9,4.59-17.78,4.63-26.79.13Q79.3,62.76,54.17,5.82H160.3V44.75Q145.59,67.6,131,75.08Z"/>
  </g>
</svg>
