<svg  version="1.1" xmlns="http://www.w3.org/2000/svg" xmlns:xlink="http://www.w3.org/1999/xlink" viewBox="0 0 160 160" class="">
  <g id="poly-icon" data-name="Poly Icon">
    <path d="M130.4,106.4a33.9,33.9,0,0,1-32,.15C75.84,95.28,53.88,60.18,31.89,0H25.46C50.76,79.62,76,125.9,101,138.41c9,4.5,17.78,4.46,26.79-.13q16-8.17,32.24-35V77.07Q145.33,98.82,130.4,106.4Z"/>
    <path d="M130.4,143.47a33.9,33.9,0,0,1-32,.15C71.56,130.22,45.54,83,19.33,0H0V160H160V114.14Q145.33,135.91,130.4,143.47Z"/>
    <path d="M130.4,77.36a33.9,33.9,0,0,1-32,.15C79.74,68.2,61.51,42.59,43.32,0h-5.2c21.05,57.05,42,90.92,62.85,101.33,9,4.51,17.78,4.47,26.79-.12q16-8.19,32.24-35V48Q145.33,69.78,130.4,77.36Z"/>
    <path d="M49.68,0Q75.43,59.46,101,72.29c9,4.51,17.77,4.47,26.79-.12q16-8.18,32.24-35V0Z"/>
  </g>
</svg>
