<svg  version="1.1" xmlns="http://www.w3.org/2000/svg" xmlns:xlink="http://www.w3.org/1999/xlink" viewBox="0 0 160 160" class="">
  <g id="inte-icon" data-name="Inte Icon">
      <path d="M46.22,103.28c-1.42,2.9-2.85,5.77-4.27,8.65L125.56,160H160v-1.31L50.08,95.48Z"/>
      <path d="M31.06,133.45,77.22,160H114L39.38,117.12C36.17,123.55,33.51,128.77,31.06,133.45Z"/>
      <path d="M15.91,160H65.62L28.35,138.57C24.3,146.11,20.16,153.42,15.91,160Z"/>
      <path d="M0,0V160H8.93a292.73,292.73,0,0,0,15.71-26.78c3.14-5.92,6.51-12.52,10.92-21.42,1.83-3.67,3.65-7.37,5.47-11.07,1.74-3.53,3.48-7.07,5.23-10.58,3-6,6.93-13.91,11-21.56,4.39-8.34,8.32-15.32,12-21.34,14.43-23.54,26.69-34.5,38.57-34.5,17.94,0,35.29,25.67,52.18,57.6V0Z"/>
      <path d="M52.65,90.29,160,152V130.9l-99-57C58,79.69,55.06,85.44,52.65,90.29Z"/>
      <path d="M107.82,18.54c-5.37,0-11.2,3.29-17.61,10L149,62.34C135.14,37.59,120.94,18.54,107.82,18.54Z"/>
      <path d="M86.29,32.93A144.69,144.69,0,0,0,75.75,47.75L160,96.3V83c-1.87-3.67-3.75-7.32-5.65-10.89Z"/>
      <path d="M63.65,68.82,160,124.22V103L72.72,52.68C69.89,57.41,66.9,62.74,63.65,68.82Z"/>
  </g>
</svg>
