<svg  version="1.1" xmlns="http://www.w3.org/2000/svg" xmlns:xlink="http://www.w3.org/1999/xlink" viewBox="0 0 160 160" class="">
  <g id="stat-icon" data-name="Stat Icon">
    <path d="M0,0V160H0v-3.12a401.63,401.63,0,0,1,65.59-35.51C102.45,105.51,132.7,97,160,92.48v5.84c-26.68,4.52-56.22,12.89-92.13,28.34A396.62,396.62,0,0,0,5.72,160H160V0ZM160,68.81,0,136.17v-6.24L160,62.56Zm0-33.6C135.8,54.29,101.92,75.28,56.31,92A406.78,406.78,0,0,1,0,107.8v-5.89A399.77,399.77,0,0,0,54.33,86.58C101.61,69.26,136,47.33,160,27.85Z"/>
  </g>
</svg>
