<svg xmlns="http://www.w3.org/2000/svg" xmlns:xlink="http://www.w3.org/1999/xlink" viewBox="0 0 100 100">
  <defs>
    <clipPath id="clip-path">
      <rect class="cls-1" width="100" height="100"/>
    </clipPath>
  </defs>
  <g id="inte-open">
    <path class="cls-3" d="M9.05,103.14c3.13-4.72,6.28-10.25,9.44-16.21,2.32-4.39,4.65-9,7-13.71C27.74,68.66,30,64,32.29,59.42s4.65-9.29,7-13.71c2.53-4.8,5.06-9.36,7.61-13.5,7.62-12.44,15.3-21.12,23-21.12,11,0,22.34,17.76,33.27,38.86m0,50.23L32.29,59.42m-6.81,13.8,52,29.92m-59-16.21,28.2,16.21m0,0M103.17,50m0,14.7L46.88,32.21M101,45.74l-45.21-26Zm-61.69,0,63.9,36.74"/>
  </g>
</svg>
