<svg xmlns="http://www.w3.org/2000/svg" viewBox="0 0 100 100">
  <path id="prob-sq" d="M9.07,80.09C5.91,85.47,2.94,90.13,0,94.17V89.32c2.94-4.57,5.91-9.83,9.07-15.9,24.08-46.15,31.78-64,40.93-64s16.85,17.89,40.93,64c3.16,6.07,6.13,11.33,9.07,15.9v4.85c-2.94-4-5.91-8.7-9.07-14.08C66.85,39.24,59.15,23.4,50,23.4S33.15,39.24,9.07,80.09ZM100,99.28a153.71,153.71,0,0,1-9.07-12.61C66.85,50.1,59.15,35.92,50,35.92S33.15,50.1,9.07,86.67A153.71,153.71,0,0,1,0,99.28m100-5.11c-2.94-4-5.91-8.7-9.07-14.08C66.85,39.24,59.15,23.4,50,23.4S33.15,39.24,9.07,80.09C5.91,85.47,2.94,90.13,0,94.17M100,0H0V100H100Z"/>
</svg>
