<svg xmlns="http://www.w3.org/2000/svg" viewBox="0 0 100 100" stroke="currentColor" fill="none" >

  <path id="diff-icon" d="M100,62.89,45.77,100M100,33.15c-3.6,6.31-7.13,13.54-10.55,20.51M68.81,83.2c6.07,0,13.09-14.12,20.64-29.54L25,16.61C40.73,27.51,56.76,83.2,68.81,83.2ZM0,37.68c.16-.31.32-.62.49-.93,1.6-3,3.21-5.94,4.83-8.57,4.84-7.9,9.71-13.41,14.61-13.41a7.77,7.77,0,0,1,3.16.73L0,2.23M45.77,100,100,62.89V59.73L89.45,53.66C81.9,69.08,74.88,83.2,68.81,83.2,56.76,83.2,40.73,27.51,25,16.61L23.09,15.5a7.77,7.77,0,0,0-3.16-.73c-4.9,0-9.77,5.51-14.61,13.41C3.7,30.81,2.09,33.7.49,36.75c-.17.31-.33.62-.49.93M25,16.61a12.72,12.72,0,0,0-1.93-1.11ZM100,0H0V100H100Z"/>

  <path id="inte-icon" d="M7.22,100c3.09-4.66,6.19-10.11,9.3-16,2.29-4.32,4.59-8.88,6.89-13.51s4.47-9.08,6.72-13.61S34.71,47.74,37,43.39c2.49-4.73,5-9.23,7.5-13.32C52,17.82,59.59,9.26,67.2,9.26c10.89,0,22,17.51,32.8,38.31m0,49.51L30.13,56.9M23.41,70.51,74.7,100M16.52,84l27.8,16m0,0M100,47.57m0,14.49-55.49-32M97.82,43.41,53.26,17.79ZM37,43.39l63,36.22M100,0H0V100H100Z"/>

  <path id="poly-icon" d="M100,26.63Q81.15,56.24,62.29,46.81,45.7,38.52,29.11,0M14,0Q38.15,76.07,62.29,88.13,81.15,97.57,100,68M21.91,0Q42.1,54.86,62.29,65,81.15,74.4,100,44.78M100,0H0V100H100Z"/>

  <path id="prob-icon" d="M9.07,80.09C5.91,85.47,2.94,90.13,0,94.17V89.32c2.94-4.57,5.91-9.83,9.07-15.9,24.08-46.15,31.78-64,40.93-64s16.85,17.89,40.93,64c3.16,6.07,6.13,11.33,9.07,15.9v4.85c-2.94-4-5.91-8.7-9.07-14.08C66.85,39.24,59.15,23.4,50,23.4S33.15,39.24,9.07,80.09ZM100,99.28a153.71,153.71,0,0,1-9.07-12.61C66.85,50.1,59.15,35.92,50,35.92S33.15,50.1,9.07,86.67A153.71,153.71,0,0,1,0,99.28m100-5.11c-2.94-4-5.91-8.7-9.07-14.08C66.85,39.24,59.15,23.4,50,23.4S33.15,39.24,9.07,80.09C5.91,85.47,2.94,90.13,0,94.17M100,0H0V100H100Z"/>

  <path id="spec-icon" d="M100,11.33v8.09C88.23,37.12,76.9,64.7,66.63,82.51,61.32,73.34,55.74,61.57,50,49.9,61.77,26,74.19,2.41,86.28,2.41,90.87,2.41,95.44,5.81,100,11.33ZM33.35,82.56C39.29,92.83,44.9,99.85,50,99.85s10.7-7,16.63-17.34C61.32,73.34,55.74,61.57,50,49.9,44.25,61.59,38.67,73.37,33.35,82.56Zm0,0c5.32-9.19,10.9-21,16.65-32.66C38.23,26,25.81,2.41,13.72,2.41c-4.58,0-9.15,3.38-13.7,8.9v7.87C11.59,36.89,23,64.66,33.35,82.56Zm33.28,0c6,10.3,11.57,17.34,16.68,17.34S94,92.75,100,82.39m-100,0C6,92.77,11.57,99.85,16.69,99.85s10.71-7,16.66-17.29C39.29,92.83,44.9,99.85,50,99.85s10.7-7,16.63-17.34c6,10.3,11.57,17.34,16.68,17.34S94,92.75,100,82.39h0M0,11.31c4.55-5.52,9.12-8.9,13.7-8.9C25.81,2.41,38.23,26,50,49.9,61.77,26,74.19,2.41,86.28,2.41c4.59,0,9.16,3.4,13.72,8.92M100,0H0V100H100Z"/>

  <path id="stat-icon" d="M0,98.92A249.08,249.08,0,0,1,41,76.68c22.88-9.84,41.61-15.15,59-18M0,64.56A252.87,252.87,0,0,0,33.9,55C61.2,45,83.29,31.77,100,18.32M0,82.05,100,39.94M100,0H0V100H100Z"/>
</svg>
