<svg xmlns="http://www.w3.org/2000/svg" xmlns:xlink="http://www.w3.org/1999/xlink" viewBox="0 0 100 100">
  <defs>
    <clipPath id="clip-path">
      <rect class="cls-1" width="100" height="100"/>
    </clipPath>
  </defs>
  <g id="prob-open">
    <path class="cls-3" d="M8,81.88c-3.25,5.51-6.29,10.28-9.3,14.43v-5C1.75,86.65,4.79,81.26,8,75,32.72,27.72,40.62,9.38,50,9.38S67.28,27.72,92,75c3.25,6.23,6.29,11.62,9.3,16.3v5c-3-4.15-6.05-8.92-9.3-14.43C67.28,40,59.38,23.75,50,23.75S32.72,40,8,81.88Zm93.22,19.66c-3-3.71-6.05-8-9.3-12.92-24.68-37.49-32.58-52-42-52s-17.28,14.54-42,52c-3.25,4.94-6.29,9.21-9.3,12.92m102.52-5.23c-3-4.15-6.05-8.92-9.3-14.43C67.28,40,59.38,23.75,50,23.75S32.72,40,8,81.88c-3.25,5.51-6.29,10.28-9.3,14.43"/>
  </g>
</svg>
