<svg xmlns="http://www.w3.org/2000/svg" viewBox="0 0 100 100">
  <path id="spec-sq" d="M100,11.33v8.09C88.23,37.12,76.9,64.7,66.63,82.51,61.32,73.34,55.74,61.57,50,49.9,61.77,26,74.19,2.41,86.28,2.41,90.87,2.41,95.44,5.81,100,11.33ZM33.35,82.56C39.29,92.83,44.9,99.85,50,99.85s10.7-7,16.63-17.34C61.32,73.34,55.74,61.57,50,49.9,44.25,61.59,38.67,73.37,33.35,82.56Zm0,0c5.32-9.19,10.9-21,16.65-32.66C38.23,26,25.81,2.41,13.72,2.41c-4.58,0-9.15,3.38-13.7,8.9v7.87C11.59,36.89,23,64.66,33.35,82.56Zm33.28,0c6,10.3,11.57,17.34,16.68,17.34S94,92.75,100,82.39m-100,0C6,92.77,11.57,99.85,16.69,99.85s10.71-7,16.66-17.29C39.29,92.83,44.9,99.85,50,99.85s10.7-7,16.63-17.34c6,10.3,11.57,17.34,16.68,17.34S94,92.75,100,82.39h0M0,11.31c4.55-5.52,9.12-8.9,13.7-8.9C25.81,2.41,38.23,26,50,49.9,61.77,26,74.19,2.41,86.28,2.41c4.59,0,9.16,3.4,13.72,8.92M100,0H0V100H100Z"/>
</svg>
