<svg  xmlns="http://www.w3.org/2000/svg" viewBox="0 0 100 100">
  <path id="diff-sq" d="M100,62.89,45.77,100M100,33.15c-3.6,6.31-7.13,13.54-10.55,20.51M68.81,83.2c6.07,0,13.09-14.12,20.64-29.54L25,16.61C40.73,27.51,56.76,83.2,68.81,83.2ZM0,37.68c.16-.31.32-.62.49-.93,1.6-3,3.21-5.94,4.83-8.57,4.84-7.9,9.71-13.41,14.61-13.41a7.77,7.77,0,0,1,3.16.73L0,2.23M45.77,100,100,62.89V59.73L89.45,53.66C81.9,69.08,74.88,83.2,68.81,83.2,56.76,83.2,40.73,27.51,25,16.61L23.09,15.5a7.77,7.77,0,0,0-3.16-.73c-4.9,0-9.77,5.51-14.61,13.41C3.7,30.81,2.09,33.7.49,36.75c-.17.31-.33.62-.49.93M25,16.61a12.72,12.72,0,0,0-1.93-1.11ZM100,0H0V100H100Z"/>
</svg>
