<svg  version="1.1" xmlns="http://www.w3.org/2000/svg" xmlns:xlink="http://www.w3.org/1999/xlink" viewBox="0 0 160 160" class="">
  <g id="spec-icon" data-name="Spec Icon">
      <path d="M128.93,0H31C47.84,9.36,64.11,39.22,80,71.19,95.81,39.22,112.08,9.36,128.93,0Z"/>
      <path d="M80,84.72,77.9,88.94C70.26,104.58,63,119.37,56.06,131.56c8.8,15,17,25.41,23.91,25.41s15.08-10.47,23.85-25.49C96.87,119.31,89.65,104.55,82,88.94Z"/>
      <path d="M125.93,159.9c-6.09-4.08-12.27-12.07-18.66-22.56-6.36,10.48-12.52,18.47-18.59,22.56Z"/>
      <path d="M52.61,137.41C46.24,147.86,40.07,155.83,34,159.9H71.24C65.16,155.83,59,147.86,52.61,137.41Z"/>
      <path d="M52.61,125.5C59.13,113.75,65.87,100,72.53,86.32q2.06-4.18,4.1-8.38c-18.31-37.18-38.4-75-56.25-75C13.81,2.94,6.94,8.24,0,16.74v8.61c11.11,16.83,22,39.08,32.69,61C39.35,100,46.1,113.75,52.61,125.5Z"/>
      <path d="M25.26,157c6.86,0,15.11-10.4,23.91-25.41-7-12.19-14.2-27-21.84-42.62C18.58,71,9.32,52.09,0,36.54v92.51C9.3,145.36,18.05,157,25.26,157Z"/>
      <path d="M150.23,0a44.16,44.16,0,0,1,9.67,7.69V0Z"/>
      <path d="M9.7,0H0V7.7A44,44,0,0,1,9.7,0Z"/>
      <path d="M139.54,2.94c-17.85,0-37.94,37.82-56.25,75q2.05,4.19,4.1,8.38c6.65,13.6,13.38,27.36,19.87,39.1C113.51,114.12,120,101,126.33,88c11-22.33,22.08-45,33.57-62.17v-9C153,8.23,146.11,2.94,139.54,2.94Z"/>
      <path d="M110.71,131.48c8.82,15.05,17.08,25.49,24,25.49,7.2,0,16-11.6,25.23-27.89V36.88c-9.68,15.9-19.21,35.34-28.21,53.7C124.36,105.54,117.41,119.71,110.71,131.48Z"/>
      <path d="M0,140.63V159.9H16.57C11.14,156.26,5.65,149.5,0,140.63Z"/>
      <path d="M143.36,159.9H159.9V140.67C154.26,149.52,148.78,156.26,143.36,159.9Z"/>
  </g>
</svg>
