<svg  version="1.1" xmlns="http://www.w3.org/2000/svg" xmlns:xlink="http://www.w3.org/1999/xlink" viewBox="0 0 160 160" fill="#00ABFF">
  <g id="prob-icon" data-name="Prob Icon">
      <path d="M128.08,117.18C101.87,76.93,91,60.28,80,60.28s-21.87,16.65-48.08,56.9c-4.47,6.86-9.53,14.63-15.07,23-4.8,7.29-9.44,13.89-14.17,19.78H157.32c-4.73-5.89-9.37-12.49-14.17-19.78C137.61,131.81,132.55,124,128.08,117.18Z"/>
      <path d="M14.64,133.41c4.57-7,8.8-13.46,12.59-19.28C55.4,70.87,65.94,54.68,80,54.68s24.6,16.19,52.77,59.45c3.79,5.82,8,12.31,12.59,19.28l-2.29-3.84c-5.53-9.39-10.59-18.07-15.06-25.73-25.46-43.67-37.08-63.6-48-63.6s-22.55,19.93-48,63.6c-4.47,7.66-9.53,16.34-15.06,25.73Z"/>
      <path d="M80,34.64c14.15,0,24.68,18.08,52.84,66.38,2.64,4.52,5.49,9.41,8.51,14.57-4.89-9.39-9.39-18.11-13.41-25.89C102.46,40.34,90.84,17.81,80,17.81S57.54,40.34,32.06,89.7c-4,7.78-8.52,16.5-13.41,25.89L27.16,101C55.32,52.72,65.85,34.64,80,34.64Z"/>
      <path d="M0,0V137.61c3.82-6.21,7.79-13.3,12-21.44,5.52-10.59,10.58-20.39,15.05-29C55.23,32.62,65.76,12.22,80,12.22s24.77,20.4,52.91,74.92c4.47,8.64,9.53,18.44,15.05,29,4.25,8.14,8.22,15.23,12,21.44V0Z"/>
  </g>
</svg>
