<svg  version="1.1" xmlns="http://www.w3.org/2000/svg" xmlns:xlink="http://www.w3.org/1999/xlink" viewBox="0 0 160 160" class="" fill="currentColor">

  <g id="poly-icon" data-name="Poly Icon">
    <path d="M130.4,106.4a33.9,33.9,0,0,1-32,.15C75.84,95.28,53.88,60.18,31.89,0H25.46C50.76,79.62,76,125.9,101,138.41c9,4.5,17.78,4.46,26.79-.13q16-8.17,32.24-35V77.07Q145.33,98.82,130.4,106.4Z"/>
    <path d="M130.4,143.47a33.9,33.9,0,0,1-32,.15C71.56,130.22,45.54,83,19.33,0H0V160H160V114.14Q145.33,135.91,130.4,143.47Z"/>
    <path d="M130.4,77.36a33.9,33.9,0,0,1-32,.15C79.74,68.2,61.51,42.59,43.32,0h-5.2c21.05,57.05,42,90.92,62.85,101.33,9,4.51,17.78,4.47,26.79-.12q16-8.19,32.24-35V48Q145.33,69.78,130.4,77.36Z"/>
    <path d="M49.68,0Q75.43,59.46,101,72.29c9,4.51,17.77,4.47,26.79-.12q16-8.18,32.24-35V0Z"/>
  </g>

  <g id="stat-icon" data-name="Stat Icon">
    <path d="M0,0V160H0v-3.12a401.63,401.63,0,0,1,65.59-35.51C102.45,105.51,132.7,97,160,92.48v5.84c-26.68,4.52-56.22,12.89-92.13,28.34A396.62,396.62,0,0,0,5.72,160H160V0ZM160,68.81,0,136.17v-6.24L160,62.56Zm0-33.6C135.8,54.29,101.92,75.28,56.31,92A406.78,406.78,0,0,1,0,107.8v-5.89A399.77,399.77,0,0,0,54.33,86.58C101.61,69.26,136,47.33,160,27.85Z"/>
  </g>

  <g id="spec-icon" data-name="Spec Icon">
      <path d="M128.93,0H31C47.84,9.36,64.11,39.22,80,71.19,95.81,39.22,112.08,9.36,128.93,0Z"/>
      <path d="M80,84.72,77.9,88.94C70.26,104.58,63,119.37,56.06,131.56c8.8,15,17,25.41,23.91,25.41s15.08-10.47,23.85-25.49C96.87,119.31,89.65,104.55,82,88.94Z"/>
      <path d="M125.93,159.9c-6.09-4.08-12.27-12.07-18.66-22.56-6.36,10.48-12.52,18.47-18.59,22.56Z"/>
      <path d="M52.61,137.41C46.24,147.86,40.07,155.83,34,159.9H71.24C65.16,155.83,59,147.86,52.61,137.41Z"/>
      <path d="M52.61,125.5C59.13,113.75,65.87,100,72.53,86.32q2.06-4.18,4.1-8.38c-18.31-37.18-38.4-75-56.25-75C13.81,2.94,6.94,8.24,0,16.74v8.61c11.11,16.83,22,39.08,32.69,61C39.35,100,46.1,113.75,52.61,125.5Z"/>
      <path d="M25.26,157c6.86,0,15.11-10.4,23.91-25.41-7-12.19-14.2-27-21.84-42.62C18.58,71,9.32,52.09,0,36.54v92.51C9.3,145.36,18.05,157,25.26,157Z"/>
      <path d="M150.23,0a44.16,44.16,0,0,1,9.67,7.69V0Z"/>
      <path d="M9.7,0H0V7.7A44,44,0,0,1,9.7,0Z"/>
      <path d="M139.54,2.94c-17.85,0-37.94,37.82-56.25,75q2.05,4.19,4.1,8.38c6.65,13.6,13.38,27.36,19.87,39.1C113.51,114.12,120,101,126.33,88c11-22.33,22.08-45,33.57-62.17v-9C153,8.23,146.11,2.94,139.54,2.94Z"/>
      <path d="M110.71,131.48c8.82,15.05,17.08,25.49,24,25.49,7.2,0,16-11.6,25.23-27.89V36.88c-9.68,15.9-19.21,35.34-28.21,53.7C124.36,105.54,117.41,119.71,110.71,131.48Z"/>
      <path d="M0,140.63V159.9H16.57C11.14,156.26,5.65,149.5,0,140.63Z"/>
      <path d="M143.36,159.9H159.9V140.67C154.26,149.52,148.78,156.26,143.36,159.9Z"/>
  </g>

  <g id="prob-icon" data-name="Prob Icon">
      <path d="M128.08,117.18C101.87,76.93,91,60.28,80,60.28s-21.87,16.65-48.08,56.9c-4.47,6.86-9.53,14.63-15.07,23-4.8,7.29-9.44,13.89-14.17,19.78H157.32c-4.73-5.89-9.37-12.49-14.17-19.78C137.61,131.81,132.55,124,128.08,117.18Z"/>
      <path d="M14.64,133.41c4.57-7,8.8-13.46,12.59-19.28C55.4,70.87,65.94,54.68,80,54.68s24.6,16.19,52.77,59.45c3.79,5.82,8,12.31,12.59,19.28l-2.29-3.84c-5.53-9.39-10.59-18.07-15.06-25.73-25.46-43.67-37.08-63.6-48-63.6s-22.55,19.93-48,63.6c-4.47,7.66-9.53,16.34-15.06,25.73Z"/>
      <path d="M80,34.64c14.15,0,24.68,18.08,52.84,66.38,2.64,4.52,5.49,9.41,8.51,14.57-4.89-9.39-9.39-18.11-13.41-25.89C102.46,40.34,90.84,17.81,80,17.81S57.54,40.34,32.06,89.7c-4,7.78-8.52,16.5-13.41,25.89L27.16,101C55.32,52.72,65.85,34.64,80,34.64Z"/>
      <path d="M0,0V137.61c3.82-6.21,7.79-13.3,12-21.44,5.52-10.59,10.58-20.39,15.05-29C55.23,32.62,65.76,12.22,80,12.22s24.77,20.4,52.91,74.92c4.47,8.64,9.53,18.44,15.05,29,4.25,8.14,8.22,15.23,12,21.44V0Z"/>
  </g>

  <g id="inte-icon" data-name="Inte Icon">
      <path d="M46.22,103.28c-1.42,2.9-2.85,5.77-4.27,8.65L125.56,160H160v-1.31L50.08,95.48Z"/>
      <path d="M31.06,133.45,77.22,160H114L39.38,117.12C36.17,123.55,33.51,128.77,31.06,133.45Z"/>
      <path d="M15.91,160H65.62L28.35,138.57C24.3,146.11,20.16,153.42,15.91,160Z"/>
      <path d="M0,0V160H8.93a292.73,292.73,0,0,0,15.71-26.78c3.14-5.92,6.51-12.52,10.92-21.42,1.83-3.67,3.65-7.37,5.47-11.07,1.74-3.53,3.48-7.07,5.23-10.58,3-6,6.93-13.91,11-21.56,4.39-8.34,8.32-15.32,12-21.34,14.43-23.54,26.69-34.5,38.57-34.5,17.94,0,35.29,25.67,52.18,57.6V0Z"/>
      <path d="M52.65,90.29,160,152V130.9l-99-57C58,79.69,55.06,85.44,52.65,90.29Z"/>
      <path d="M107.82,18.54c-5.37,0-11.2,3.29-17.61,10L149,62.34C135.14,37.59,120.94,18.54,107.82,18.54Z"/>
      <path d="M86.29,32.93A144.69,144.69,0,0,0,75.75,47.75L160,96.3V83c-1.87-3.67-3.75-7.32-5.65-10.89Z"/>
      <path d="M63.65,68.82,160,124.22V103L72.72,52.68C69.89,57.41,66.9,62.74,63.65,68.82Z"/>
  </g>

  <g id="diff-icon" data-name="Diff Icon">
      <path d="M78.53,82.36c11,22.43,23.39,47.85,31.57,47.85a5.61,5.61,0,0,0,2.75-.85l1.51-1c7.23-5.77,16.44-24,25-41.31L54.57,38.29C62.77,50.1,70.72,66.37,78.53,82.36Z"/>
      <path d="M73.3,84.91C62.73,63.28,50,37.26,38.61,29.12l-3.1-1.79a9.43,9.43,0,0,0-3.62-.79C26.1,26.54,19.26,33.1,11,46.6c-2.35,3.82-4.84,8.26-7.64,13.56C2.21,62.33,1.08,64.52,0,66.64V160H68.08l37-25.29C95.67,129.85,86.44,111.8,73.3,84.91Z"/>
      <path d="M26.15,22,0,6.92V54.09c2.15-4,4.13-7.44,6-10.53C13.34,31.64,19.87,24.61,26.15,22Z"/>
      <polygon points="160 160 160 104.14 78.38 160 160 160"/>
      <path d="M0,0V.21L38.81,22.52a23.91,23.91,0,0,1,2.27,1.3l100.8,58c5.93-12.1,11.94-24.25,18.12-34.51V0Z"/>
      <path d="M144.37,89.93c-5.21,10.6-10,20.2-14.62,27.87l28.8-19.72Z"/>
      <path d="M160,92.21V59.06c-4.55,8.31-9,17.25-13.07,25.63Z"/>
  </g>

</svg>
