<svg xmlns="http://www.w3.org/2000/svg" viewBox="0 0 165.82 165.82" class="">
  <g id="spec-line" data-name="Spec Line">
      <path d="M0,0V165.82H165.82V0ZM160,33.11c-10.92,16.56-21.51,38.15-31.93,59.4-6.2,12.66-12.49,25.49-18.58,36.5-6.33-11.43-12.89-24.85-19.36-38.09q-2-4.08-4-8.17C104,46.52,123.55,9.67,141,9.67c6.15,0,12.56,4.77,19.05,12.49ZM5.82,22.11c6.48-7.69,12.88-12.44,19-12.44,17.4,0,37,36.85,54.82,73.08q-2,4.08-4,8.17c-6.49,13.28-13.06,26.72-19.41,38.17C49.9,117.64,43.32,104.2,36.83,90.92,26.68,70.14,16.36,49,5.82,32.79ZM80.88,93.47l2-4.11c.67,1.37,1.35,2.75,2,4.11,7.43,15.21,14.46,29.59,21.24,41.45-8.55,14.63-16.57,24.83-23.24,24.83S68.18,149.62,59.6,135C66.39,123.12,73.43,108.71,80.88,93.47ZM71.06,160H41.43c4.84-4.34,9.76-11,14.81-19.3C61.29,149,66.21,155.66,71.06,160Zm38.44-19.37c5.07,8.31,10,15,14.85,19.37H94.7C99.55,155.64,104.46,148.94,109.5,140.63ZM82.89,76.17c-16-32.38-32.55-62.54-49.66-70.35h99.32C115.44,13.63,98.94,43.79,82.89,76.17ZM5.82,5.82H16.38A38.09,38.09,0,0,0,5.82,13.47Zm0,38c8.79,14.87,17.53,32.73,25.79,49.63C39.05,108.71,46.1,123.12,52.88,135c-8.57,14.62-16.61,24.75-23.29,24.75S14.56,149.13,5.82,134Zm0,101.31c4,6.23,8,11.31,12,14.85h-12ZM160,160H148c3.94-3.55,7.92-8.65,12-14.91ZM160,134c-8.76,15.15-17,25.8-23.81,25.8s-14.74-10.16-23.33-24.83c6.53-11.47,13.29-25.27,20.44-39.85,8.52-17.39,17.54-35.77,26.7-51ZM149.4,5.82H160v7.69A38.23,38.23,0,0,0,149.4,5.82Z"/>
  </g>
</svg>
