<svg xmlns="http://www.w3.org/2000/svg" viewBox="0 0 165.76 165.76" class="">
  <g id="stat-line" data-name="Stat Line">
      <path class="cls-1" d="M0,0V165.76H165.76V0ZM160,160H13a400.12,400.12,0,0,1,57.72-30.47c34.62-14.89,63.33-23.19,89.25-27.81Zm0-64.15c-26.55,4.65-56,13.1-91.53,28.4A403.32,403.32,0,0,0,5.76,157.84v-20L160,72.9Zm0-29.19L5.76,131.59V110.05A401.81,401.81,0,0,0,59.19,94.86C103,78.81,136,58.8,160,40.33ZM57.21,89.45A393.46,393.46,0,0,1,5.76,104.16V5.76H160V33C136.19,51.93,102.63,72.82,57.21,89.45Z"/>
  </g>
</svg>
